# https://github.com/mikedh/trimesh
v 0.01900000 0.00000000 -0.03140000
v 0.01890851 0.00186233 -0.03140000
v 0.01863492 0.00370672 -0.03140000
v 0.01818187 0.00551541 -0.03140000
v 0.01755371 0.00727099 -0.03140000
v 0.01675650 0.00895654 -0.03140000
v 0.01579792 0.01055583 -0.03140000
v 0.01468720 0.01205347 -0.03140000
v 0.01343503 0.01343503 -0.03140000
v 0.01205347 0.01468720 -0.03140000
v 0.01055583 0.01579792 -0.03140000
v 0.00895654 0.01675650 -0.03140000
v 0.00727099 0.01755371 -0.03140000
v 0.00551541 0.01818187 -0.03140000
v 0.00370672 0.01863492 -0.03140000
v 0.00186233 0.01890851 -0.03140000
v 0.00000000 0.01900000 -0.03140000
v -0.00186233 0.01890851 -0.03140000
v -0.00370672 0.01863492 -0.03140000
v -0.00551541 0.01818187 -0.03140000
v -0.00727099 0.01755371 -0.03140000
v -0.00895654 0.01675650 -0.03140000
v -0.01055583 0.01579792 -0.03140000
v -0.01205347 0.01468720 -0.03140000
v -0.01343503 0.01343503 -0.03140000
v -0.01468720 0.01205347 -0.03140000
v -0.01579792 0.01055583 -0.03140000
v -0.01675650 0.00895654 -0.03140000
v -0.01755371 0.00727099 -0.03140000
v -0.01818187 0.00551541 -0.03140000
v -0.01863492 0.00370672 -0.03140000
v -0.01890851 0.00186233 -0.03140000
v -0.01900000 0.00000000 -0.03140000
v -0.01890851 -0.00186233 -0.03140000
v -0.01863492 -0.00370672 -0.03140000
v -0.01818187 -0.00551541 -0.03140000
v -0.01755371 -0.00727099 -0.03140000
v -0.01675650 -0.00895654 -0.03140000
v -0.01579792 -0.01055583 -0.03140000
v -0.01468720 -0.01205347 -0.03140000
v -0.01343503 -0.01343503 -0.03140000
v -0.01205347 -0.01468720 -0.03140000
v -0.01055583 -0.01579792 -0.03140000
v -0.00895654 -0.01675650 -0.03140000
v -0.00727099 -0.01755371 -0.03140000
v -0.00551541 -0.01818187 -0.03140000
v -0.00370672 -0.01863492 -0.03140000
v -0.00186233 -0.01890851 -0.03140000
v -0.00000000 -0.01900000 -0.03140000
v 0.00186233 -0.01890851 -0.03140000
v 0.00370672 -0.01863492 -0.03140000
v 0.00551541 -0.01818187 -0.03140000
v 0.00727099 -0.01755371 -0.03140000
v 0.00895654 -0.01675650 -0.03140000
v 0.01055583 -0.01579792 -0.03140000
v 0.01205347 -0.01468720 -0.03140000
v 0.01343503 -0.01343503 -0.03140000
v 0.01468720 -0.01205347 -0.03140000
v 0.01579792 -0.01055583 -0.03140000
v 0.01675650 -0.00895654 -0.03140000
v 0.01755371 -0.00727099 -0.03140000
v 0.01818187 -0.00551541 -0.03140000
v 0.01863492 -0.00370672 -0.03140000
v 0.01890851 -0.00186233 -0.03140000
v 0.01900000 -0.00000000 -0.03140000
v 0.02400000 0.00000000 -0.02700000
v 0.02388443 0.00235241 -0.02700000
v 0.02353885 0.00468217 -0.02700000
v 0.02296657 0.00696683 -0.02700000
v 0.02217311 0.00918440 -0.02700000
v 0.02116611 0.01131352 -0.02700000
v 0.01995527 0.01333369 -0.02700000
v 0.01855225 0.01522544 -0.02700000
v 0.01697056 0.01697056 -0.02700000
v 0.01522544 0.01855225 -0.02700000
v 0.01333369 0.01995527 -0.02700000
v 0.01131352 0.02116611 -0.02700000
v 0.00918440 0.02217311 -0.02700000
v 0.00696683 0.02296657 -0.02700000
v 0.00468217 0.02353885 -0.02700000
v 0.00235241 0.02388443 -0.02700000
v 0.00000000 0.02400000 -0.02700000
v -0.00235241 0.02388443 -0.02700000
v -0.00468217 0.02353885 -0.02700000
v -0.00696683 0.02296657 -0.02700000
v -0.00918440 0.02217311 -0.02700000
v -0.01131352 0.02116611 -0.02700000
v -0.01333369 0.01995527 -0.02700000
v -0.01522544 0.01855225 -0.02700000
v -0.01697056 0.01697056 -0.02700000
v -0.01855225 0.01522544 -0.02700000
v -0.01995527 0.01333369 -0.02700000
v -0.02116611 0.01131352 -0.02700000
v -0.02217311 0.00918440 -0.02700000
v -0.02296657 0.00696683 -0.02700000
v -0.02353885 0.00468217 -0.02700000
v -0.02388443 0.00235241 -0.02700000
v -0.02400000 0.00000000 -0.02700000
v -0.02388443 -0.00235241 -0.02700000
v -0.02353885 -0.00468217 -0.02700000
v -0.02296657 -0.00696683 -0.02700000
v -0.02217311 -0.00918440 -0.02700000
v -0.02116611 -0.01131352 -0.02700000
v -0.01995527 -0.01333369 -0.02700000
v -0.01855225 -0.01522544 -0.02700000
v -0.01697056 -0.01697056 -0.02700000
v -0.01522544 -0.01855225 -0.02700000
v -0.01333369 -0.01995527 -0.02700000
v -0.01131352 -0.02116611 -0.02700000
v -0.00918440 -0.02217311 -0.02700000
v -0.00696683 -0.02296657 -0.02700000
v -0.00468217 -0.02353885 -0.02700000
v -0.00235241 -0.02388443 -0.02700000
v -0.00000000 -0.02400000 -0.02700000
v 0.00235241 -0.02388443 -0.02700000
v 0.00468217 -0.02353885 -0.02700000
v 0.00696683 -0.02296657 -0.02700000
v 0.00918440 -0.02217311 -0.02700000
v 0.01131352 -0.02116611 -0.02700000
v 0.01333369 -0.01995527 -0.02700000
v 0.01522544 -0.01855225 -0.02700000
v 0.01697056 -0.01697056 -0.02700000
v 0.01855225 -0.01522544 -0.02700000
v 0.01995527 -0.01333369 -0.02700000
v 0.02116611 -0.01131352 -0.02700000
v 0.02217311 -0.00918440 -0.02700000
v 0.02296657 -0.00696683 -0.02700000
v 0.02353885 -0.00468217 -0.02700000
v 0.02388443 -0.00235241 -0.02700000
v 0.02400000 -0.00000000 -0.02700000
v 0.02500000 0.00000000 0.01300000
v 0.02487962 0.00245043 0.01300000
v 0.02451963 0.00487726 0.01300000
v 0.02392351 0.00725712 0.01300000
v 0.02309699 0.00956709 0.01300000
v 0.02204803 0.01178492 0.01300000
v 0.02078674 0.01388926 0.01300000
v 0.01932526 0.01585983 0.01300000
v 0.01767767 0.01767767 0.01300000
v 0.01585983 0.01932526 0.01300000
v 0.01388926 0.02078674 0.01300000
v 0.01178492 0.02204803 0.01300000
v 0.00956709 0.02309699 0.01300000
v 0.00725712 0.02392351 0.01300000
v 0.00487726 0.02451963 0.01300000
v 0.00245043 0.02487962 0.01300000
v 0.00000000 0.02500000 0.01300000
v -0.00245043 0.02487962 0.01300000
v -0.00487726 0.02451963 0.01300000
v -0.00725712 0.02392351 0.01300000
v -0.00956709 0.02309699 0.01300000
v -0.01178492 0.02204803 0.01300000
v -0.01388926 0.02078674 0.01300000
v -0.01585983 0.01932526 0.01300000
v -0.01767767 0.01767767 0.01300000
v -0.01932526 0.01585983 0.01300000
v -0.02078674 0.01388926 0.01300000
v -0.02204803 0.01178492 0.01300000
v -0.02309699 0.00956709 0.01300000
v -0.02392351 0.00725712 0.01300000
v -0.02451963 0.00487726 0.01300000
v -0.02487962 0.00245043 0.01300000
v -0.02500000 0.00000000 0.01300000
v -0.02487962 -0.00245043 0.01300000
v -0.02451963 -0.00487726 0.01300000
v -0.02392351 -0.00725712 0.01300000
v -0.02309699 -0.00956709 0.01300000
v -0.02204803 -0.01178492 0.01300000
v -0.02078674 -0.01388926 0.01300000
v -0.01932526 -0.01585983 0.01300000
v -0.01767767 -0.01767767 0.01300000
v -0.01585983 -0.01932526 0.01300000
v -0.01388926 -0.02078674 0.01300000
v -0.01178492 -0.02204803 0.01300000
v -0.00956709 -0.02309699 0.01300000
v -0.00725712 -0.02392351 0.01300000
v -0.00487726 -0.02451963 0.01300000
v -0.00245043 -0.02487962 0.01300000
v -0.00000000 -0.02500000 0.01300000
v 0.00245043 -0.02487962 0.01300000
v 0.00487726 -0.02451963 0.01300000
v 0.00725712 -0.02392351 0.01300000
v 0.00956709 -0.02309699 0.01300000
v 0.01178492 -0.02204803 0.01300000
v 0.01388926 -0.02078674 0.01300000
v 0.01585983 -0.01932526 0.01300000
v 0.01767767 -0.01767767 0.01300000
v 0.01932526 -0.01585983 0.01300000
v 0.02078674 -0.01388926 0.01300000
v 0.02204803 -0.01178492 0.01300000
v 0.02309699 -0.00956709 0.01300000
v 0.02392351 -0.00725712 0.01300000
v 0.02451963 -0.00487726 0.01300000
v 0.02487962 -0.00245043 0.01300000
v 0.02500000 -0.00000000 0.01300000
v 0.01900000 0.00000000 0.01900000
v 0.01890851 0.00186233 0.01900000
v 0.01863492 0.00370672 0.01900000
v 0.01818187 0.00551541 0.01900000
v 0.01755371 0.00727099 0.01900000
v 0.01675650 0.00895654 0.01900000
v 0.01579792 0.01055583 0.01900000
v 0.01468720 0.01205347 0.01900000
v 0.01343503 0.01343503 0.01900000
v 0.01205347 0.01468720 0.01900000
v 0.01055583 0.01579792 0.01900000
v 0.00895654 0.01675650 0.01900000
v 0.00727099 0.01755371 0.01900000
v 0.00551541 0.01818187 0.01900000
v 0.00370672 0.01863492 0.01900000
v 0.00186233 0.01890851 0.01900000
v 0.00000000 0.01900000 0.01900000
v -0.00186233 0.01890851 0.01900000
v -0.00370672 0.01863492 0.01900000
v -0.00551541 0.01818187 0.01900000
v -0.00727099 0.01755371 0.01900000
v -0.00895654 0.01675650 0.01900000
v -0.01055583 0.01579792 0.01900000
v -0.01205347 0.01468720 0.01900000
v -0.01343503 0.01343503 0.01900000
v -0.01468720 0.01205347 0.01900000
v -0.01579792 0.01055583 0.01900000
v -0.01675650 0.00895654 0.01900000
v -0.01755371 0.00727099 0.01900000
v -0.01818187 0.00551541 0.01900000
v -0.01863492 0.00370672 0.01900000
v -0.01890851 0.00186233 0.01900000
v -0.01900000 0.00000000 0.01900000
v -0.01890851 -0.00186233 0.01900000
v -0.01863492 -0.00370672 0.01900000
v -0.01818187 -0.00551541 0.01900000
v -0.01755371 -0.00727099 0.01900000
v -0.01675650 -0.00895654 0.01900000
v -0.01579792 -0.01055583 0.01900000
v -0.01468720 -0.01205347 0.01900000
v -0.01343503 -0.01343503 0.01900000
v -0.01205347 -0.01468720 0.01900000
v -0.01055583 -0.01579792 0.01900000
v -0.00895654 -0.01675650 0.01900000
v -0.00727099 -0.01755371 0.01900000
v -0.00551541 -0.01818187 0.01900000
v -0.00370672 -0.01863492 0.01900000
v -0.00186233 -0.01890851 0.01900000
v -0.00000000 -0.01900000 0.01900000
v 0.00186233 -0.01890851 0.01900000
v 0.00370672 -0.01863492 0.01900000
v 0.00551541 -0.01818187 0.01900000
v 0.00727099 -0.01755371 0.01900000
v 0.00895654 -0.01675650 0.01900000
v 0.01055583 -0.01579792 0.01900000
v 0.01205347 -0.01468720 0.01900000
v 0.01343503 -0.01343503 0.01900000
v 0.01468720 -0.01205347 0.01900000
v 0.01579792 -0.01055583 0.01900000
v 0.01675650 -0.00895654 0.01900000
v 0.01755371 -0.00727099 0.01900000
v 0.01818187 -0.00551541 0.01900000
v 0.01863492 -0.00370672 0.01900000
v 0.01890851 -0.00186233 0.01900000
v 0.01900000 -0.00000000 0.01900000
v 0.01800000 0.00000000 0.02600000
v 0.01791333 0.00176431 0.02600000
v 0.01765414 0.00351163 0.02600000
v 0.01722493 0.00522512 0.02600000
v 0.01662983 0.00688830 0.02600000
v 0.01587458 0.00848514 0.02600000
v 0.01496645 0.01000026 0.02600000
v 0.01391419 0.01141908 0.02600000
v 0.01272792 0.01272792 0.02600000
v 0.01141908 0.01391419 0.02600000
v 0.01000026 0.01496645 0.02600000
v 0.00848514 0.01587458 0.02600000
v 0.00688830 0.01662983 0.02600000
v 0.00522512 0.01722493 0.02600000
v 0.00351163 0.01765414 0.02600000
v 0.00176431 0.01791333 0.02600000
v 0.00000000 0.01800000 0.02600000
v -0.00176431 0.01791333 0.02600000
v -0.00351163 0.01765414 0.02600000
v -0.00522512 0.01722493 0.02600000
v -0.00688830 0.01662983 0.02600000
v -0.00848514 0.01587458 0.02600000
v -0.01000026 0.01496645 0.02600000
v -0.01141908 0.01391419 0.02600000
v -0.01272792 0.01272792 0.02600000
v -0.01391419 0.01141908 0.02600000
v -0.01496645 0.01000026 0.02600000
v -0.01587458 0.00848514 0.02600000
v -0.01662983 0.00688830 0.02600000
v -0.01722493 0.00522512 0.02600000
v -0.01765414 0.00351163 0.02600000
v -0.01791333 0.00176431 0.02600000
v -0.01800000 0.00000000 0.02600000
v -0.01791333 -0.00176431 0.02600000
v -0.01765414 -0.00351163 0.02600000
v -0.01722493 -0.00522512 0.02600000
v -0.01662983 -0.00688830 0.02600000
v -0.01587458 -0.00848514 0.02600000
v -0.01496645 -0.01000026 0.02600000
v -0.01391419 -0.01141908 0.02600000
v -0.01272792 -0.01272792 0.02600000
v -0.01141908 -0.01391419 0.02600000
v -0.01000026 -0.01496645 0.02600000
v -0.00848514 -0.01587458 0.02600000
v -0.00688830 -0.01662983 0.02600000
v -0.00522512 -0.01722493 0.02600000
v -0.00351163 -0.01765414 0.02600000
v -0.00176431 -0.01791333 0.02600000
v -0.00000000 -0.01800000 0.02600000
v 0.00176431 -0.01791333 0.02600000
v 0.00351163 -0.01765414 0.02600000
v 0.00522512 -0.01722493 0.02600000
v 0.00688830 -0.01662983 0.02600000
v 0.00848514 -0.01587458 0.02600000
v 0.01000026 -0.01496645 0.02600000
v 0.01141908 -0.01391419 0.02600000
v 0.01272792 -0.01272792 0.02600000
v 0.01391419 -0.01141908 0.02600000
v 0.01496645 -0.01000026 0.02600000
v 0.01587458 -0.00848514 0.02600000
v 0.01662983 -0.00688830 0.02600000
v 0.01722493 -0.00522512 0.02600000
v 0.01765414 -0.00351163 0.02600000
v 0.01791333 -0.00176431 0.02600000
v 0.01800000 -0.00000000 0.02600000
v 0.00000000 0.00000000 -0.03140000
v 0.00000000 0.00000000 0.02600000
v 0.02510000 0.00000000 -0.02000000
v 0.02497914 0.00246023 -0.02000000
v 0.02461771 0.00489677 -0.02000000
v 0.02401920 0.00728615 -0.02000000
v 0.02318938 0.00960535 -0.02000000
v 0.02213622 0.01183206 -0.02000000
v 0.02086989 0.01394481 -0.02000000
v 0.01940256 0.01592327 -0.02000000
v 0.01774838 0.01774838 -0.02000000
v 0.01592327 0.01940256 -0.02000000
v 0.01394481 0.02086989 -0.02000000
v 0.01183206 0.02213622 -0.02000000
v 0.00960535 0.02318938 -0.02000000
v 0.00728615 0.02401920 -0.02000000
v 0.00489677 0.02461771 -0.02000000
v 0.00246023 0.02497914 -0.02000000
v 0.00000000 0.02510000 -0.02000000
v -0.00246023 0.02497914 -0.02000000
v -0.00489677 0.02461771 -0.02000000
v -0.00728615 0.02401920 -0.02000000
v -0.00960535 0.02318938 -0.02000000
v -0.01183206 0.02213622 -0.02000000
v -0.01394481 0.02086989 -0.02000000
v -0.01592327 0.01940256 -0.02000000
v -0.01774838 0.01774838 -0.02000000
v -0.01940256 0.01592327 -0.02000000
v -0.02086989 0.01394481 -0.02000000
v -0.02213622 0.01183206 -0.02000000
v -0.02318938 0.00960535 -0.02000000
v -0.02401920 0.00728615 -0.02000000
v -0.02461771 0.00489677 -0.02000000
v -0.02497914 0.00246023 -0.02000000
v -0.02510000 0.00000000 -0.02000000
v -0.02497914 -0.00246023 -0.02000000
v -0.02461771 -0.00489677 -0.02000000
v -0.02401920 -0.00728615 -0.02000000
v -0.02318938 -0.00960535 -0.02000000
v -0.02213622 -0.01183206 -0.02000000
v -0.02086989 -0.01394481 -0.02000000
v -0.01940256 -0.01592327 -0.02000000
v -0.01774838 -0.01774838 -0.02000000
v -0.01592327 -0.01940256 -0.02000000
v -0.01394481 -0.02086989 -0.02000000
v -0.01183206 -0.02213622 -0.02000000
v -0.00960535 -0.02318938 -0.02000000
v -0.00728615 -0.02401920 -0.02000000
v -0.00489677 -0.02461771 -0.02000000
v -0.00246023 -0.02497914 -0.02000000
v -0.00000000 -0.02510000 -0.02000000
v 0.00246023 -0.02497914 -0.02000000
v 0.00489677 -0.02461771 -0.02000000
v 0.00728615 -0.02401920 -0.02000000
v 0.00960535 -0.02318938 -0.02000000
v 0.01183206 -0.02213622 -0.02000000
v 0.01394481 -0.02086989 -0.02000000
v 0.01592327 -0.01940256 -0.02000000
v 0.01774838 -0.01774838 -0.02000000
v 0.01940256 -0.01592327 -0.02000000
v 0.02086989 -0.01394481 -0.02000000
v 0.02213622 -0.01183206 -0.02000000
v 0.02318938 -0.00960535 -0.02000000
v 0.02401920 -0.00728615 -0.02000000
v 0.02461771 -0.00489677 -0.02000000
v 0.02497914 -0.00246023 -0.02000000
v 0.02510000 -0.00000000 -0.02000000
v 0.02510000 0.00000000 0.01200000
v 0.02497914 0.00246023 0.01200000
v 0.02461771 0.00489677 0.01200000
v 0.02401920 0.00728615 0.01200000
v 0.02318938 0.00960535 0.01200000
v 0.02213622 0.01183206 0.01200000
v 0.02086989 0.01394481 0.01200000
v 0.01940256 0.01592327 0.01200000
v 0.01774838 0.01774838 0.01200000
v 0.01592327 0.01940256 0.01200000
v 0.01394481 0.02086989 0.01200000
v 0.01183206 0.02213622 0.01200000
v 0.00960535 0.02318938 0.01200000
v 0.00728615 0.02401920 0.01200000
v 0.00489677 0.02461771 0.01200000
v 0.00246023 0.02497914 0.01200000
v 0.00000000 0.02510000 0.01200000
v -0.00246023 0.02497914 0.01200000
v -0.00489677 0.02461771 0.01200000
v -0.00728615 0.02401920 0.01200000
v -0.00960535 0.02318938 0.01200000
v -0.01183206 0.02213622 0.01200000
v -0.01394481 0.02086989 0.01200000
v -0.01592327 0.01940256 0.01200000
v -0.01774838 0.01774838 0.01200000
v -0.01940256 0.01592327 0.01200000
v -0.02086989 0.01394481 0.01200000
v -0.02213622 0.01183206 0.01200000
v -0.02318938 0.00960535 0.01200000
v -0.02401920 0.00728615 0.01200000
v -0.02461771 0.00489677 0.01200000
v -0.02497914 0.00246023 0.01200000
v -0.02510000 0.00000000 0.01200000
v -0.02497914 -0.00246023 0.01200000
v -0.02461771 -0.00489677 0.01200000
v -0.02401920 -0.00728615 0.01200000
v -0.02318938 -0.00960535 0.01200000
v -0.02213622 -0.01183206 0.01200000
v -0.02086989 -0.01394481 0.01200000
v -0.01940256 -0.01592327 0.01200000
v -0.01774838 -0.01774838 0.01200000
v -0.01592327 -0.01940256 0.01200000
v -0.01394481 -0.02086989 0.01200000
v -0.01183206 -0.02213622 0.01200000
v -0.00960535 -0.02318938 0.01200000
v -0.00728615 -0.02401920 0.01200000
v -0.00489677 -0.02461771 0.01200000
v -0.00246023 -0.02497914 0.01200000
v -0.00000000 -0.02510000 0.01200000
v 0.00246023 -0.02497914 0.01200000
v 0.00489677 -0.02461771 0.01200000
v 0.00728615 -0.02401920 0.01200000
v 0.00960535 -0.02318938 0.01200000
v 0.01183206 -0.02213622 0.01200000
v 0.01394481 -0.02086989 0.01200000
v 0.01592327 -0.01940256 0.01200000
v 0.01774838 -0.01774838 0.01200000
v 0.01940256 -0.01592327 0.01200000
v 0.02086989 -0.01394481 0.01200000
v 0.02213622 -0.01183206 0.01200000
v 0.02318938 -0.00960535 0.01200000
v 0.02401920 -0.00728615 0.01200000
v 0.02461771 -0.00489677 0.01200000
v 0.02497914 -0.00246023 0.01200000
v 0.02510000 -0.00000000 0.01200000
v 0.01900000 0.00000000 0.02400000
v 0.01856816 0.00182880 0.02400000
v 0.01863492 0.00370672 0.02400000
v 0.01785459 0.00541613 0.02400000
v 0.01755371 0.00727099 0.02400000
v 0.01645489 0.00879532 0.02400000
v 0.01579792 0.01055583 0.02400000
v 0.01442283 0.01183651 0.02400000
v 0.01343503 0.01343503 0.02400000
v 0.01183651 0.01442283 0.02400000
v 0.01055583 0.01579792 0.02400000
v 0.00879532 0.01645489 0.02400000
v 0.00727099 0.01755371 0.02400000
v 0.00541613 0.01785459 0.02400000
v 0.00370672 0.01863492 0.02400000
v 0.00182880 0.01856816 0.02400000
v 0.00000000 0.01900000 0.02400000
v -0.00182880 0.01856816 0.02400000
v -0.00370672 0.01863492 0.02400000
v -0.00541613 0.01785459 0.02400000
v -0.00727099 0.01755371 0.02400000
v -0.00879532 0.01645489 0.02400000
v -0.01055583 0.01579792 0.02400000
v -0.01183651 0.01442283 0.02400000
v -0.01343503 0.01343503 0.02400000
v -0.01442283 0.01183651 0.02400000
v -0.01579792 0.01055583 0.02400000
v -0.01645489 0.00879532 0.02400000
v -0.01755371 0.00727099 0.02400000
v -0.01785459 0.00541613 0.02400000
v -0.01863492 0.00370672 0.02400000
v -0.01856816 0.00182880 0.02400000
v -0.01900000 0.00000000 0.02400000
v -0.01856816 -0.00182880 0.02400000
v -0.01863492 -0.00370672 0.02400000
v -0.01785459 -0.00541613 0.02400000
v -0.01755371 -0.00727099 0.02400000
v -0.01645489 -0.00879532 0.02400000
v -0.01579792 -0.01055583 0.02400000
v -0.01442283 -0.01183651 0.02400000
v -0.01343503 -0.01343503 0.02400000
v -0.01183651 -0.01442283 0.02400000
v -0.01055583 -0.01579792 0.02400000
v -0.00879532 -0.01645489 0.02400000
v -0.00727099 -0.01755371 0.02400000
v -0.00541613 -0.01785459 0.02400000
v -0.00370672 -0.01863492 0.02400000
v -0.00182880 -0.01856816 0.02400000
v -0.00000000 -0.01900000 0.02400000
v 0.00182880 -0.01856816 0.02400000
v 0.00370672 -0.01863492 0.02400000
v 0.00541613 -0.01785459 0.02400000
v 0.00727099 -0.01755371 0.02400000
v 0.00879532 -0.01645489 0.02400000
v 0.01055583 -0.01579792 0.02400000
v 0.01183651 -0.01442283 0.02400000
v 0.01343503 -0.01343503 0.02400000
v 0.01442283 -0.01183651 0.02400000
v 0.01579792 -0.01055583 0.02400000
v 0.01645489 -0.00879532 0.02400000
v 0.01755371 -0.00727099 0.02400000
v 0.01785459 -0.00541613 0.02400000
v 0.01863492 -0.00370672 0.02400000
v 0.01856816 -0.00182880 0.02400000
v 0.01900000 -0.00000000 0.02400000
v 0.02000000 0.00000000 0.02600000
v 0.01954543 0.00192506 0.02600000
v 0.01961571 0.00390181 0.02600000
v 0.01879431 0.00570119 0.02600000
v 0.01847759 0.00765367 0.02600000
v 0.01732093 0.00925823 0.02600000
v 0.01662939 0.01111140 0.02600000
v 0.01518193 0.01245948 0.02600000
v 0.01414214 0.01414214 0.02600000
v 0.01245948 0.01518193 0.02600000
v 0.01111140 0.01662939 0.02600000
v 0.00925823 0.01732093 0.02600000
v 0.00765367 0.01847759 0.02600000
v 0.00570119 0.01879431 0.02600000
v 0.00390181 0.01961571 0.02600000
v 0.00192506 0.01954543 0.02600000
v 0.00000000 0.02000000 0.02600000
v -0.00192506 0.01954543 0.02600000
v -0.00390181 0.01961571 0.02600000
v -0.00570119 0.01879431 0.02600000
v -0.00765367 0.01847759 0.02600000
v -0.00925823 0.01732093 0.02600000
v -0.01111140 0.01662939 0.02600000
v -0.01245948 0.01518193 0.02600000
v -0.01414214 0.01414214 0.02600000
v -0.01518193 0.01245948 0.02600000
v -0.01662939 0.01111140 0.02600000
v -0.01732093 0.00925823 0.02600000
v -0.01847759 0.00765367 0.02600000
v -0.01879431 0.00570119 0.02600000
v -0.01961571 0.00390181 0.02600000
v -0.01954543 0.00192506 0.02600000
v -0.02000000 0.00000000 0.02600000
v -0.01954543 -0.00192506 0.02600000
v -0.01961571 -0.00390181 0.02600000
v -0.01879431 -0.00570119 0.02600000
v -0.01847759 -0.00765367 0.02600000
v -0.01732093 -0.00925823 0.02600000
v -0.01662939 -0.01111140 0.02600000
v -0.01518193 -0.01245948 0.02600000
v -0.01414214 -0.01414214 0.02600000
v -0.01245948 -0.01518193 0.02600000
v -0.01111140 -0.01662939 0.02600000
v -0.00925823 -0.01732093 0.02600000
v -0.00765367 -0.01847759 0.02600000
v -0.00570119 -0.01879431 0.02600000
v -0.00390181 -0.01961571 0.02600000
v -0.00192506 -0.01954543 0.02600000
v -0.00000000 -0.02000000 0.02600000
v 0.00192506 -0.01954543 0.02600000
v 0.00390181 -0.01961571 0.02600000
v 0.00570119 -0.01879431 0.02600000
v 0.00765367 -0.01847759 0.02600000
v 0.00925823 -0.01732093 0.02600000
v 0.01111140 -0.01662939 0.02600000
v 0.01245948 -0.01518193 0.02600000
v 0.01414214 -0.01414214 0.02600000
v 0.01518193 -0.01245948 0.02600000
v 0.01662939 -0.01111140 0.02600000
v 0.01732093 -0.00925823 0.02600000
v 0.01847759 -0.00765367 0.02600000
v 0.01879431 -0.00570119 0.02600000
v 0.01961571 -0.00390181 0.02600000
v 0.01954543 -0.00192506 0.02600000
v 0.02000000 -0.00000000 0.02600000
v 0.02000000 0.00000000 0.03140000
v 0.01954543 0.00192506 0.03140000
v 0.01961571 0.00390181 0.03140000
v 0.01879431 0.00570119 0.03140000
v 0.01847759 0.00765367 0.03140000
v 0.01732093 0.00925823 0.03140000
v 0.01662939 0.01111140 0.03140000
v 0.01518193 0.01245948 0.03140000
v 0.01414214 0.01414214 0.03140000
v 0.01245948 0.01518193 0.03140000
v 0.01111140 0.01662939 0.03140000
v 0.00925823 0.01732093 0.03140000
v 0.00765367 0.01847759 0.03140000
v 0.00570119 0.01879431 0.03140000
v 0.00390181 0.01961571 0.03140000
v 0.00192506 0.01954543 0.03140000
v 0.00000000 0.02000000 0.03140000
v -0.00192506 0.01954543 0.03140000
v -0.00390181 0.01961571 0.03140000
v -0.00570119 0.01879431 0.03140000
v -0.00765367 0.01847759 0.03140000
v -0.00925823 0.01732093 0.03140000
v -0.01111140 0.01662939 0.03140000
v -0.01245948 0.01518193 0.03140000
v -0.01414214 0.01414214 0.03140000
v -0.01518193 0.01245948 0.03140000
v -0.01662939 0.01111140 0.03140000
v -0.01732093 0.00925823 0.03140000
v -0.01847759 0.00765367 0.03140000
v -0.01879431 0.00570119 0.03140000
v -0.01961571 0.00390181 0.03140000
v -0.01954543 0.00192506 0.03140000
v -0.02000000 0.00000000 0.03140000
v -0.01954543 -0.00192506 0.03140000
v -0.01961571 -0.00390181 0.03140000
v -0.01879431 -0.00570119 0.03140000
v -0.01847759 -0.00765367 0.03140000
v -0.01732093 -0.00925823 0.03140000
v -0.01662939 -0.01111140 0.03140000
v -0.01518193 -0.01245948 0.03140000
v -0.01414214 -0.01414214 0.03140000
v -0.01245948 -0.01518193 0.03140000
v -0.01111140 -0.01662939 0.03140000
v -0.00925823 -0.01732093 0.03140000
v -0.00765367 -0.01847759 0.03140000
v -0.00570119 -0.01879431 0.03140000
v -0.00390181 -0.01961571 0.03140000
v -0.00192506 -0.01954543 0.03140000
v -0.00000000 -0.02000000 0.03140000
v 0.00192506 -0.01954543 0.03140000
v 0.00390181 -0.01961571 0.03140000
v 0.00570119 -0.01879431 0.03140000
v 0.00765367 -0.01847759 0.03140000
v 0.00925823 -0.01732093 0.03140000
v 0.01111140 -0.01662939 0.03140000
v 0.01245948 -0.01518193 0.03140000
v 0.01414214 -0.01414214 0.03140000
v 0.01518193 -0.01245948 0.03140000
v 0.01662939 -0.01111140 0.03140000
v 0.01732093 -0.00925823 0.03140000
v 0.01847759 -0.00765367 0.03140000
v 0.01879431 -0.00570119 0.03140000
v 0.01961571 -0.00390181 0.03140000
v 0.01954543 -0.00192506 0.03140000
v 0.02000000 -0.00000000 0.03140000
v 0.00000000 0.00000000 0.02400000
v 0.00000000 0.00000000 0.03140000
vt 0.88750000 0.01500000
vt 0.88906250 0.01500000
vt 0.89062500 0.01500000
vt 0.89218750 0.01500000
vt 0.89375000 0.01500000
vt 0.89531250 0.01500000
vt 0.89687500 0.01500000
vt 0.89843750 0.01500000
vt 0.90000000 0.01500000
vt 0.90156250 0.01500000
vt 0.90312500 0.01500000
vt 0.90468750 0.01500000
vt 0.90625000 0.01500000
vt 0.90781250 0.01500000
vt 0.90937500 0.01500000
vt 0.91093750 0.01500000
vt 0.91250000 0.01500000
vt 0.91406250 0.01500000
vt 0.91562500 0.01500000
vt 0.91718750 0.01500000
vt 0.91875000 0.01500000
vt 0.92031250 0.01500000
vt 0.92187500 0.01500000
vt 0.92343750 0.01500000
vt 0.92500000 0.01500000
vt 0.92656250 0.01500000
vt 0.92812500 0.01500000
vt 0.92968750 0.01500000
vt 0.93125000 0.01500000
vt 0.93281250 0.01500000
vt 0.93437500 0.01500000
vt 0.93593750 0.01500000
vt 0.93750000 0.01500000
vt 0.93906250 0.01500000
vt 0.94062500 0.01500000
vt 0.94218750 0.01500000
vt 0.94375000 0.01500000
vt 0.94531250 0.01500000
vt 0.94687500 0.01500000
vt 0.94843750 0.01500000
vt 0.95000000 0.01500000
vt 0.95156250 0.01500000
vt 0.95312500 0.01500000
vt 0.95468750 0.01500000
vt 0.95625000 0.01500000
vt 0.95781250 0.01500000
vt 0.95937500 0.01500000
vt 0.96093750 0.01500000
vt 0.96250000 0.01500000
vt 0.96406250 0.01500000
vt 0.96562500 0.01500000
vt 0.96718750 0.01500000
vt 0.96875000 0.01500000
vt 0.97031250 0.01500000
vt 0.97187500 0.01500000
vt 0.97343750 0.01500000
vt 0.97500000 0.01500000
vt 0.97656250 0.01500000
vt 0.97812500 0.01500000
vt 0.97968750 0.01500000
vt 0.98125000 0.01500000
vt 0.98281250 0.01500000
vt 0.98437500 0.01500000
vt 0.98593750 0.01500000
vt 0.98750000 0.01500000
vt 0.88750000 0.06000000
vt 0.88906250 0.06000000
vt 0.89062500 0.06000000
vt 0.89218750 0.06000000
vt 0.89375000 0.06000000
vt 0.89531250 0.06000000
vt 0.89687500 0.06000000
vt 0.89843750 0.06000000
vt 0.90000000 0.06000000
vt 0.90156250 0.06000000
vt 0.90312500 0.06000000
vt 0.90468750 0.06000000
vt 0.90625000 0.06000000
vt 0.90781250 0.06000000
vt 0.90937500 0.06000000
vt 0.91093750 0.06000000
vt 0.91250000 0.06000000
vt 0.91406250 0.06000000
vt 0.91562500 0.06000000
vt 0.91718750 0.06000000
vt 0.91875000 0.06000000
vt 0.92031250 0.06000000
vt 0.92187500 0.06000000
vt 0.92343750 0.06000000
vt 0.92500000 0.06000000
vt 0.92656250 0.06000000
vt 0.92812500 0.06000000
vt 0.92968750 0.06000000
vt 0.93125000 0.06000000
vt 0.93281250 0.06000000
vt 0.93437500 0.06000000
vt 0.93593750 0.06000000
vt 0.93750000 0.06000000
vt 0.93906250 0.06000000
vt 0.94062500 0.06000000
vt 0.94218750 0.06000000
vt 0.94375000 0.06000000
vt 0.94531250 0.06000000
vt 0.94687500 0.06000000
vt 0.94843750 0.06000000
vt 0.95000000 0.06000000
vt 0.95156250 0.06000000
vt 0.95312500 0.06000000
vt 0.95468750 0.06000000
vt 0.95625000 0.06000000
vt 0.95781250 0.06000000
vt 0.95937500 0.06000000
vt 0.96093750 0.06000000
vt 0.96250000 0.06000000
vt 0.96406250 0.06000000
vt 0.96562500 0.06000000
vt 0.96718750 0.06000000
vt 0.96875000 0.06000000
vt 0.97031250 0.06000000
vt 0.97187500 0.06000000
vt 0.97343750 0.06000000
vt 0.97500000 0.06000000
vt 0.97656250 0.06000000
vt 0.97812500 0.06000000
vt 0.97968750 0.06000000
vt 0.98125000 0.06000000
vt 0.98281250 0.06000000
vt 0.98437500 0.06000000
vt 0.98593750 0.06000000
vt 0.98750000 0.06000000
vt 0.88750000 0.10500000
vt 0.88906250 0.10500000
vt 0.89062500 0.10500000
vt 0.89218750 0.10500000
vt 0.89375000 0.10500000
vt 0.89531250 0.10500000
vt 0.89687500 0.10500000
vt 0.89843750 0.10500000
vt 0.90000000 0.10500000
vt 0.90156250 0.10500000
vt 0.90312500 0.10500000
vt 0.90468750 0.10500000
vt 0.90625000 0.10500000
vt 0.90781250 0.10500000
vt 0.90937500 0.10500000
vt 0.91093750 0.10500000
vt 0.91250000 0.10500000
vt 0.91406250 0.10500000
vt 0.91562500 0.10500000
vt 0.91718750 0.10500000
vt 0.91875000 0.10500000
vt 0.92031250 0.10500000
vt 0.92187500 0.10500000
vt 0.92343750 0.10500000
vt 0.92500000 0.10500000
vt 0.92656250 0.10500000
vt 0.92812500 0.10500000
vt 0.92968750 0.10500000
vt 0.93125000 0.10500000
vt 0.93281250 0.10500000
vt 0.93437500 0.10500000
vt 0.93593750 0.10500000
vt 0.93750000 0.10500000
vt 0.93906250 0.10500000
vt 0.94062500 0.10500000
vt 0.94218750 0.10500000
vt 0.94375000 0.10500000
vt 0.94531250 0.10500000
vt 0.94687500 0.10500000
vt 0.94843750 0.10500000
vt 0.95000000 0.10500000
vt 0.95156250 0.10500000
vt 0.95312500 0.10500000
vt 0.95468750 0.10500000
vt 0.95625000 0.10500000
vt 0.95781250 0.10500000
vt 0.95937500 0.10500000
vt 0.96093750 0.10500000
vt 0.96250000 0.10500000
vt 0.96406250 0.10500000
vt 0.96562500 0.10500000
vt 0.96718750 0.10500000
vt 0.96875000 0.10500000
vt 0.97031250 0.10500000
vt 0.97187500 0.10500000
vt 0.97343750 0.10500000
vt 0.97500000 0.10500000
vt 0.97656250 0.10500000
vt 0.97812500 0.10500000
vt 0.97968750 0.10500000
vt 0.98125000 0.10500000
vt 0.98281250 0.10500000
vt 0.98437500 0.10500000
vt 0.98593750 0.10500000
vt 0.98750000 0.10500000
vt 0.88750000 0.15000000
vt 0.88906250 0.15000000
vt 0.89062500 0.15000000
vt 0.89218750 0.15000000
vt 0.89375000 0.15000000
vt 0.89531250 0.15000000
vt 0.89687500 0.15000000
vt 0.89843750 0.15000000
vt 0.90000000 0.15000000
vt 0.90156250 0.15000000
vt 0.90312500 0.15000000
vt 0.90468750 0.15000000
vt 0.90625000 0.15000000
vt 0.90781250 0.15000000
vt 0.90937500 0.15000000
vt 0.91093750 0.15000000
vt 0.91250000 0.15000000
vt 0.91406250 0.15000000
vt 0.91562500 0.15000000
vt 0.91718750 0.15000000
vt 0.91875000 0.15000000
vt 0.92031250 0.15000000
vt 0.92187500 0.15000000
vt 0.92343750 0.15000000
vt 0.92500000 0.15000000
vt 0.92656250 0.15000000
vt 0.92812500 0.15000000
vt 0.92968750 0.15000000
vt 0.93125000 0.15000000
vt 0.93281250 0.15000000
vt 0.93437500 0.15000000
vt 0.93593750 0.15000000
vt 0.93750000 0.15000000
vt 0.93906250 0.15000000
vt 0.94062500 0.15000000
vt 0.94218750 0.15000000
vt 0.94375000 0.15000000
vt 0.94531250 0.15000000
vt 0.94687500 0.15000000
vt 0.94843750 0.15000000
vt 0.95000000 0.15000000
vt 0.95156250 0.15000000
vt 0.95312500 0.15000000
vt 0.95468750 0.15000000
vt 0.95625000 0.15000000
vt 0.95781250 0.15000000
vt 0.95937500 0.15000000
vt 0.96093750 0.15000000
vt 0.96250000 0.15000000
vt 0.96406250 0.15000000
vt 0.96562500 0.15000000
vt 0.96718750 0.15000000
vt 0.96875000 0.15000000
vt 0.97031250 0.15000000
vt 0.97187500 0.15000000
vt 0.97343750 0.15000000
vt 0.97500000 0.15000000
vt 0.97656250 0.15000000
vt 0.97812500 0.15000000
vt 0.97968750 0.15000000
vt 0.98125000 0.15000000
vt 0.98281250 0.15000000
vt 0.98437500 0.15000000
vt 0.98593750 0.15000000
vt 0.98750000 0.15000000
vt 0.88750000 0.19500000
vt 0.88906250 0.19500000
vt 0.89062500 0.19500000
vt 0.89218750 0.19500000
vt 0.89375000 0.19500000
vt 0.89531250 0.19500000
vt 0.89687500 0.19500000
vt 0.89843750 0.19500000
vt 0.90000000 0.19500000
vt 0.90156250 0.19500000
vt 0.90312500 0.19500000
vt 0.90468750 0.19500000
vt 0.90625000 0.19500000
vt 0.90781250 0.19500000
vt 0.90937500 0.19500000
vt 0.91093750 0.19500000
vt 0.91250000 0.19500000
vt 0.91406250 0.19500000
vt 0.91562500 0.19500000
vt 0.91718750 0.19500000
vt 0.91875000 0.19500000
vt 0.92031250 0.19500000
vt 0.92187500 0.19500000
vt 0.92343750 0.19500000
vt 0.92500000 0.19500000
vt 0.92656250 0.19500000
vt 0.92812500 0.19500000
vt 0.92968750 0.19500000
vt 0.93125000 0.19500000
vt 0.93281250 0.19500000
vt 0.93437500 0.19500000
vt 0.93593750 0.19500000
vt 0.93750000 0.19500000
vt 0.93906250 0.19500000
vt 0.94062500 0.19500000
vt 0.94218750 0.19500000
vt 0.94375000 0.19500000
vt 0.94531250 0.19500000
vt 0.94687500 0.19500000
vt 0.94843750 0.19500000
vt 0.95000000 0.19500000
vt 0.95156250 0.19500000
vt 0.95312500 0.19500000
vt 0.95468750 0.19500000
vt 0.95625000 0.19500000
vt 0.95781250 0.19500000
vt 0.95937500 0.19500000
vt 0.96093750 0.19500000
vt 0.96250000 0.19500000
vt 0.96406250 0.19500000
vt 0.96562500 0.19500000
vt 0.96718750 0.19500000
vt 0.96875000 0.19500000
vt 0.97031250 0.19500000
vt 0.97187500 0.19500000
vt 0.97343750 0.19500000
vt 0.97500000 0.19500000
vt 0.97656250 0.19500000
vt 0.97812500 0.19500000
vt 0.97968750 0.19500000
vt 0.98125000 0.19500000
vt 0.98281250 0.19500000
vt 0.98437500 0.19500000
vt 0.98593750 0.19500000
vt 0.98750000 0.19500000
vt 0.93750000 0.10000000
vt 0.93750000 0.10000000
vt 0.00000000 0.25000000
vt 0.01562500 0.25000000
vt 0.03125000 0.25000000
vt 0.04687500 0.25000000
vt 0.06250000 0.25000000
vt 0.07812500 0.25000000
vt 0.09375000 0.25000000
vt 0.10937500 0.25000000
vt 0.12500000 0.25000000
vt 0.14062500 0.25000000
vt 0.15625000 0.25000000
vt 0.17187500 0.25000000
vt 0.18750000 0.25000000
vt 0.20312500 0.25000000
vt 0.21875000 0.25000000
vt 0.23437500 0.25000000
vt 0.25000000 0.25000000
vt 0.26562500 0.25000000
vt 0.28125000 0.25000000
vt 0.29687500 0.25000000
vt 0.31250000 0.25000000
vt 0.32812500 0.25000000
vt 0.34375000 0.25000000
vt 0.35937500 0.25000000
vt 0.37500000 0.25000000
vt 0.39062500 0.25000000
vt 0.40625000 0.25000000
vt 0.42187500 0.25000000
vt 0.43750000 0.25000000
vt 0.45312500 0.25000000
vt 0.46875000 0.25000000
vt 0.48437500 0.25000000
vt 0.50000000 0.25000000
vt 0.51562500 0.25000000
vt 0.53125000 0.25000000
vt 0.54687500 0.25000000
vt 0.56250000 0.25000000
vt 0.57812500 0.25000000
vt 0.59375000 0.25000000
vt 0.60937500 0.25000000
vt 0.62500000 0.25000000
vt 0.64062500 0.25000000
vt 0.65625000 0.25000000
vt 0.67187500 0.25000000
vt 0.68750000 0.25000000
vt 0.70312500 0.25000000
vt 0.71875000 0.25000000
vt 0.73437500 0.25000000
vt 0.75000000 0.25000000
vt 0.76562500 0.25000000
vt 0.78125000 0.25000000
vt 0.79687500 0.25000000
vt 0.81250000 0.25000000
vt 0.82812500 0.25000000
vt 0.84375000 0.25000000
vt 0.85937500 0.25000000
vt 0.87500000 0.25000000
vt 0.89062500 0.25000000
vt 0.90625000 0.25000000
vt 0.92187500 0.25000000
vt 0.93750000 0.25000000
vt 0.95312500 0.25000000
vt 0.96875000 0.25000000
vt 0.98437500 0.25000000
vt 1.00000000 0.25000000
vt 0.00000000 1.00000000
vt 0.01562500 1.00000000
vt 0.03125000 1.00000000
vt 0.04687500 1.00000000
vt 0.06250000 1.00000000
vt 0.07812500 1.00000000
vt 0.09375000 1.00000000
vt 0.10937500 1.00000000
vt 0.12500000 1.00000000
vt 0.14062500 1.00000000
vt 0.15625000 1.00000000
vt 0.17187500 1.00000000
vt 0.18750000 1.00000000
vt 0.20312500 1.00000000
vt 0.21875000 1.00000000
vt 0.23437500 1.00000000
vt 0.25000000 1.00000000
vt 0.26562500 1.00000000
vt 0.28125000 1.00000000
vt 0.29687500 1.00000000
vt 0.31250000 1.00000000
vt 0.32812500 1.00000000
vt 0.34375000 1.00000000
vt 0.35937500 1.00000000
vt 0.37500000 1.00000000
vt 0.39062500 1.00000000
vt 0.40625000 1.00000000
vt 0.42187500 1.00000000
vt 0.43750000 1.00000000
vt 0.45312500 1.00000000
vt 0.46875000 1.00000000
vt 0.48437500 1.00000000
vt 0.50000000 1.00000000
vt 0.51562500 1.00000000
vt 0.53125000 1.00000000
vt 0.54687500 1.00000000
vt 0.56250000 1.00000000
vt 0.57812500 1.00000000
vt 0.59375000 1.00000000
vt 0.60937500 1.00000000
vt 0.62500000 1.00000000
vt 0.64062500 1.00000000
vt 0.65625000 1.00000000
vt 0.67187500 1.00000000
vt 0.68750000 1.00000000
vt 0.70312500 1.00000000
vt 0.71875000 1.00000000
vt 0.73437500 1.00000000
vt 0.75000000 1.00000000
vt 0.76562500 1.00000000
vt 0.78125000 1.00000000
vt 0.79687500 1.00000000
vt 0.81250000 1.00000000
vt 0.82812500 1.00000000
vt 0.84375000 1.00000000
vt 0.85937500 1.00000000
vt 0.87500000 1.00000000
vt 0.89062500 1.00000000
vt 0.90625000 1.00000000
vt 0.92187500 1.00000000
vt 0.93750000 1.00000000
vt 0.95312500 1.00000000
vt 0.96875000 1.00000000
vt 0.98437500 1.00000000
vt 1.00000000 1.00000000
vt 0.88750000 0.01500000
vt 0.88906250 0.01500000
vt 0.89062500 0.01500000
vt 0.89218750 0.01500000
vt 0.89375000 0.01500000
vt 0.89531250 0.01500000
vt 0.89687500 0.01500000
vt 0.89843750 0.01500000
vt 0.90000000 0.01500000
vt 0.90156250 0.01500000
vt 0.90312500 0.01500000
vt 0.90468750 0.01500000
vt 0.90625000 0.01500000
vt 0.90781250 0.01500000
vt 0.90937500 0.01500000
vt 0.91093750 0.01500000
vt 0.91250000 0.01500000
vt 0.91406250 0.01500000
vt 0.91562500 0.01500000
vt 0.91718750 0.01500000
vt 0.91875000 0.01500000
vt 0.92031250 0.01500000
vt 0.92187500 0.01500000
vt 0.92343750 0.01500000
vt 0.92500000 0.01500000
vt 0.92656250 0.01500000
vt 0.92812500 0.01500000
vt 0.92968750 0.01500000
vt 0.93125000 0.01500000
vt 0.93281250 0.01500000
vt 0.93437500 0.01500000
vt 0.93593750 0.01500000
vt 0.93750000 0.01500000
vt 0.93906250 0.01500000
vt 0.94062500 0.01500000
vt 0.94218750 0.01500000
vt 0.94375000 0.01500000
vt 0.94531250 0.01500000
vt 0.94687500 0.01500000
vt 0.94843750 0.01500000
vt 0.95000000 0.01500000
vt 0.95156250 0.01500000
vt 0.95312500 0.01500000
vt 0.95468750 0.01500000
vt 0.95625000 0.01500000
vt 0.95781250 0.01500000
vt 0.95937500 0.01500000
vt 0.96093750 0.01500000
vt 0.96250000 0.01500000
vt 0.96406250 0.01500000
vt 0.96562500 0.01500000
vt 0.96718750 0.01500000
vt 0.96875000 0.01500000
vt 0.97031250 0.01500000
vt 0.97187500 0.01500000
vt 0.97343750 0.01500000
vt 0.97500000 0.01500000
vt 0.97656250 0.01500000
vt 0.97812500 0.01500000
vt 0.97968750 0.01500000
vt 0.98125000 0.01500000
vt 0.98281250 0.01500000
vt 0.98437500 0.01500000
vt 0.98593750 0.01500000
vt 0.98750000 0.01500000
vt 0.88750000 0.10500000
vt 0.88906250 0.10500000
vt 0.89062500 0.10500000
vt 0.89218750 0.10500000
vt 0.89375000 0.10500000
vt 0.89531250 0.10500000
vt 0.89687500 0.10500000
vt 0.89843750 0.10500000
vt 0.90000000 0.10500000
vt 0.90156250 0.10500000
vt 0.90312500 0.10500000
vt 0.90468750 0.10500000
vt 0.90625000 0.10500000
vt 0.90781250 0.10500000
vt 0.90937500 0.10500000
vt 0.91093750 0.10500000
vt 0.91250000 0.10500000
vt 0.91406250 0.10500000
vt 0.91562500 0.10500000
vt 0.91718750 0.10500000
vt 0.91875000 0.10500000
vt 0.92031250 0.10500000
vt 0.92187500 0.10500000
vt 0.92343750 0.10500000
vt 0.92500000 0.10500000
vt 0.92656250 0.10500000
vt 0.92812500 0.10500000
vt 0.92968750 0.10500000
vt 0.93125000 0.10500000
vt 0.93281250 0.10500000
vt 0.93437500 0.10500000
vt 0.93593750 0.10500000
vt 0.93750000 0.10500000
vt 0.93906250 0.10500000
vt 0.94062500 0.10500000
vt 0.94218750 0.10500000
vt 0.94375000 0.10500000
vt 0.94531250 0.10500000
vt 0.94687500 0.10500000
vt 0.94843750 0.10500000
vt 0.95000000 0.10500000
vt 0.95156250 0.10500000
vt 0.95312500 0.10500000
vt 0.95468750 0.10500000
vt 0.95625000 0.10500000
vt 0.95781250 0.10500000
vt 0.95937500 0.10500000
vt 0.96093750 0.10500000
vt 0.96250000 0.10500000
vt 0.96406250 0.10500000
vt 0.96562500 0.10500000
vt 0.96718750 0.10500000
vt 0.96875000 0.10500000
vt 0.97031250 0.10500000
vt 0.97187500 0.10500000
vt 0.97343750 0.10500000
vt 0.97500000 0.10500000
vt 0.97656250 0.10500000
vt 0.97812500 0.10500000
vt 0.97968750 0.10500000
vt 0.98125000 0.10500000
vt 0.98281250 0.10500000
vt 0.98437500 0.10500000
vt 0.98593750 0.10500000
vt 0.98750000 0.10500000
vt 0.88750000 0.19500000
vt 0.88906250 0.19500000
vt 0.89062500 0.19500000
vt 0.89218750 0.19500000
vt 0.89375000 0.19500000
vt 0.89531250 0.19500000
vt 0.89687500 0.19500000
vt 0.89843750 0.19500000
vt 0.90000000 0.19500000
vt 0.90156250 0.19500000
vt 0.90312500 0.19500000
vt 0.90468750 0.19500000
vt 0.90625000 0.19500000
vt 0.90781250 0.19500000
vt 0.90937500 0.19500000
vt 0.91093750 0.19500000
vt 0.91250000 0.19500000
vt 0.91406250 0.19500000
vt 0.91562500 0.19500000
vt 0.91718750 0.19500000
vt 0.91875000 0.19500000
vt 0.92031250 0.19500000
vt 0.92187500 0.19500000
vt 0.92343750 0.19500000
vt 0.92500000 0.19500000
vt 0.92656250 0.19500000
vt 0.92812500 0.19500000
vt 0.92968750 0.19500000
vt 0.93125000 0.19500000
vt 0.93281250 0.19500000
vt 0.93437500 0.19500000
vt 0.93593750 0.19500000
vt 0.93750000 0.19500000
vt 0.93906250 0.19500000
vt 0.94062500 0.19500000
vt 0.94218750 0.19500000
vt 0.94375000 0.19500000
vt 0.94531250 0.19500000
vt 0.94687500 0.19500000
vt 0.94843750 0.19500000
vt 0.95000000 0.19500000
vt 0.95156250 0.19500000
vt 0.95312500 0.19500000
vt 0.95468750 0.19500000
vt 0.95625000 0.19500000
vt 0.95781250 0.19500000
vt 0.95937500 0.19500000
vt 0.96093750 0.19500000
vt 0.96250000 0.19500000
vt 0.96406250 0.19500000
vt 0.96562500 0.19500000
vt 0.96718750 0.19500000
vt 0.96875000 0.19500000
vt 0.97031250 0.19500000
vt 0.97187500 0.19500000
vt 0.97343750 0.19500000
vt 0.97500000 0.19500000
vt 0.97656250 0.19500000
vt 0.97812500 0.19500000
vt 0.97968750 0.19500000
vt 0.98125000 0.19500000
vt 0.98281250 0.19500000
vt 0.98437500 0.19500000
vt 0.98593750 0.19500000
vt 0.98750000 0.19500000
vt 0.93750000 0.10000000
vt 0.93750000 0.10000000
f 1/1 2/2 67/67
f 1/1 67/67 66/66
f 2/2 3/3 68/68
f 2/2 68/68 67/67
f 3/3 4/4 69/69
f 3/3 69/69 68/68
f 4/4 5/5 70/70
f 4/4 70/70 69/69
f 5/5 6/6 71/71
f 5/5 71/71 70/70
f 6/6 7/7 72/72
f 6/6 72/72 71/71
f 7/7 8/8 73/73
f 7/7 73/73 72/72
f 8/8 9/9 74/74
f 8/8 74/74 73/73
f 9/9 10/10 75/75
f 9/9 75/75 74/74
f 10/10 11/11 76/76
f 10/10 76/76 75/75
f 11/11 12/12 77/77
f 11/11 77/77 76/76
f 12/12 13/13 78/78
f 12/12 78/78 77/77
f 13/13 14/14 79/79
f 13/13 79/79 78/78
f 14/14 15/15 80/80
f 14/14 80/80 79/79
f 15/15 16/16 81/81
f 15/15 81/81 80/80
f 16/16 17/17 82/82
f 16/16 82/82 81/81
f 17/17 18/18 83/83
f 17/17 83/83 82/82
f 18/18 19/19 84/84
f 18/18 84/84 83/83
f 19/19 20/20 85/85
f 19/19 85/85 84/84
f 20/20 21/21 86/86
f 20/20 86/86 85/85
f 21/21 22/22 87/87
f 21/21 87/87 86/86
f 22/22 23/23 88/88
f 22/22 88/88 87/87
f 23/23 24/24 89/89
f 23/23 89/89 88/88
f 24/24 25/25 90/90
f 24/24 90/90 89/89
f 25/25 26/26 91/91
f 25/25 91/91 90/90
f 26/26 27/27 92/92
f 26/26 92/92 91/91
f 27/27 28/28 93/93
f 27/27 93/93 92/92
f 28/28 29/29 94/94
f 28/28 94/94 93/93
f 29/29 30/30 95/95
f 29/29 95/95 94/94
f 30/30 31/31 96/96
f 30/30 96/96 95/95
f 31/31 32/32 97/97
f 31/31 97/97 96/96
f 32/32 33/33 98/98
f 32/32 98/98 97/97
f 33/33 34/34 99/99
f 33/33 99/99 98/98
f 34/34 35/35 100/100
f 34/34 100/100 99/99
f 35/35 36/36 101/101
f 35/35 101/101 100/100
f 36/36 37/37 102/102
f 36/36 102/102 101/101
f 37/37 38/38 103/103
f 37/37 103/103 102/102
f 38/38 39/39 104/104
f 38/38 104/104 103/103
f 39/39 40/40 105/105
f 39/39 105/105 104/104
f 40/40 41/41 106/106
f 40/40 106/106 105/105
f 41/41 42/42 107/107
f 41/41 107/107 106/106
f 42/42 43/43 108/108
f 42/42 108/108 107/107
f 43/43 44/44 109/109
f 43/43 109/109 108/108
f 44/44 45/45 110/110
f 44/44 110/110 109/109
f 45/45 46/46 111/111
f 45/45 111/111 110/110
f 46/46 47/47 112/112
f 46/46 112/112 111/111
f 47/47 48/48 113/113
f 47/47 113/113 112/112
f 48/48 49/49 114/114
f 48/48 114/114 113/113
f 49/49 50/50 115/115
f 49/49 115/115 114/114
f 50/50 51/51 116/116
f 50/50 116/116 115/115
f 51/51 52/52 117/117
f 51/51 117/117 116/116
f 52/52 53/53 118/118
f 52/52 118/118 117/117
f 53/53 54/54 119/119
f 53/53 119/119 118/118
f 54/54 55/55 120/120
f 54/54 120/120 119/119
f 55/55 56/56 121/121
f 55/55 121/121 120/120
f 56/56 57/57 122/122
f 56/56 122/122 121/121
f 57/57 58/58 123/123
f 57/57 123/123 122/122
f 58/58 59/59 124/124
f 58/58 124/124 123/123
f 59/59 60/60 125/125
f 59/59 125/125 124/124
f 60/60 61/61 126/126
f 60/60 126/126 125/125
f 61/61 62/62 127/127
f 61/61 127/127 126/126
f 62/62 63/63 128/128
f 62/62 128/128 127/127
f 63/63 64/64 129/129
f 63/63 129/129 128/128
f 64/64 65/65 130/130
f 64/64 130/130 129/129
f 66/66 67/67 132/132
f 66/66 132/132 131/131
f 67/67 68/68 133/133
f 67/67 133/133 132/132
f 68/68 69/69 134/134
f 68/68 134/134 133/133
f 69/69 70/70 135/135
f 69/69 135/135 134/134
f 70/70 71/71 136/136
f 70/70 136/136 135/135
f 71/71 72/72 137/137
f 71/71 137/137 136/136
f 72/72 73/73 138/138
f 72/72 138/138 137/137
f 73/73 74/74 139/139
f 73/73 139/139 138/138
f 74/74 75/75 140/140
f 74/74 140/140 139/139
f 75/75 76/76 141/141
f 75/75 141/141 140/140
f 76/76 77/77 142/142
f 76/76 142/142 141/141
f 77/77 78/78 143/143
f 77/77 143/143 142/142
f 78/78 79/79 144/144
f 78/78 144/144 143/143
f 79/79 80/80 145/145
f 79/79 145/145 144/144
f 80/80 81/81 146/146
f 80/80 146/146 145/145
f 81/81 82/82 147/147
f 81/81 147/147 146/146
f 82/82 83/83 148/148
f 82/82 148/148 147/147
f 83/83 84/84 149/149
f 83/83 149/149 148/148
f 84/84 85/85 150/150
f 84/84 150/150 149/149
f 85/85 86/86 151/151
f 85/85 151/151 150/150
f 86/86 87/87 152/152
f 86/86 152/152 151/151
f 87/87 88/88 153/153
f 87/87 153/153 152/152
f 88/88 89/89 154/154
f 88/88 154/154 153/153
f 89/89 90/90 155/155
f 89/89 155/155 154/154
f 90/90 91/91 156/156
f 90/90 156/156 155/155
f 91/91 92/92 157/157
f 91/91 157/157 156/156
f 92/92 93/93 158/158
f 92/92 158/158 157/157
f 93/93 94/94 159/159
f 93/93 159/159 158/158
f 94/94 95/95 160/160
f 94/94 160/160 159/159
f 95/95 96/96 161/161
f 95/95 161/161 160/160
f 96/96 97/97 162/162
f 96/96 162/162 161/161
f 97/97 98/98 163/163
f 97/97 163/163 162/162
f 98/98 99/99 164/164
f 98/98 164/164 163/163
f 99/99 100/100 165/165
f 99/99 165/165 164/164
f 100/100 101/101 166/166
f 100/100 166/166 165/165
f 101/101 102/102 167/167
f 101/101 167/167 166/166
f 102/102 103/103 168/168
f 102/102 168/168 167/167
f 103/103 104/104 169/169
f 103/103 169/169 168/168
f 104/104 105/105 170/170
f 104/104 170/170 169/169
f 105/105 106/106 171/171
f 105/105 171/171 170/170
f 106/106 107/107 172/172
f 106/106 172/172 171/171
f 107/107 108/108 173/173
f 107/107 173/173 172/172
f 108/108 109/109 174/174
f 108/108 174/174 173/173
f 109/109 110/110 175/175
f 109/109 175/175 174/174
f 110/110 111/111 176/176
f 110/110 176/176 175/175
f 111/111 112/112 177/177
f 111/111 177/177 176/176
f 112/112 113/113 178/178
f 112/112 178/178 177/177
f 113/113 114/114 179/179
f 113/113 179/179 178/178
f 114/114 115/115 180/180
f 114/114 180/180 179/179
f 115/115 116/116 181/181
f 115/115 181/181 180/180
f 116/116 117/117 182/182
f 116/116 182/182 181/181
f 117/117 118/118 183/183
f 117/117 183/183 182/182
f 118/118 119/119 184/184
f 118/118 184/184 183/183
f 119/119 120/120 185/185
f 119/119 185/185 184/184
f 120/120 121/121 186/186
f 120/120 186/186 185/185
f 121/121 122/122 187/187
f 121/121 187/187 186/186
f 122/122 123/123 188/188
f 122/122 188/188 187/187
f 123/123 124/124 189/189
f 123/123 189/189 188/188
f 124/124 125/125 190/190
f 124/124 190/190 189/189
f 125/125 126/126 191/191
f 125/125 191/191 190/190
f 126/126 127/127 192/192
f 126/126 192/192 191/191
f 127/127 128/128 193/193
f 127/127 193/193 192/192
f 128/128 129/129 194/194
f 128/128 194/194 193/193
f 129/129 130/130 195/195
f 129/129 195/195 194/194
f 131/131 132/132 197/197
f 131/131 197/197 196/196
f 132/132 133/133 198/198
f 132/132 198/198 197/197
f 133/133 134/134 199/199
f 133/133 199/199 198/198
f 134/134 135/135 200/200
f 134/134 200/200 199/199
f 135/135 136/136 201/201
f 135/135 201/201 200/200
f 136/136 137/137 202/202
f 136/136 202/202 201/201
f 137/137 138/138 203/203
f 137/137 203/203 202/202
f 138/138 139/139 204/204
f 138/138 204/204 203/203
f 139/139 140/140 205/205
f 139/139 205/205 204/204
f 140/140 141/141 206/206
f 140/140 206/206 205/205
f 141/141 142/142 207/207
f 141/141 207/207 206/206
f 142/142 143/143 208/208
f 142/142 208/208 207/207
f 143/143 144/144 209/209
f 143/143 209/209 208/208
f 144/144 145/145 210/210
f 144/144 210/210 209/209
f 145/145 146/146 211/211
f 145/145 211/211 210/210
f 146/146 147/147 212/212
f 146/146 212/212 211/211
f 147/147 148/148 213/213
f 147/147 213/213 212/212
f 148/148 149/149 214/214
f 148/148 214/214 213/213
f 149/149 150/150 215/215
f 149/149 215/215 214/214
f 150/150 151/151 216/216
f 150/150 216/216 215/215
f 151/151 152/152 217/217
f 151/151 217/217 216/216
f 152/152 153/153 218/218
f 152/152 218/218 217/217
f 153/153 154/154 219/219
f 153/153 219/219 218/218
f 154/154 155/155 220/220
f 154/154 220/220 219/219
f 155/155 156/156 221/221
f 155/155 221/221 220/220
f 156/156 157/157 222/222
f 156/156 222/222 221/221
f 157/157 158/158 223/223
f 157/157 223/223 222/222
f 158/158 159/159 224/224
f 158/158 224/224 223/223
f 159/159 160/160 225/225
f 159/159 225/225 224/224
f 160/160 161/161 226/226
f 160/160 226/226 225/225
f 161/161 162/162 227/227
f 161/161 227/227 226/226
f 162/162 163/163 228/228
f 162/162 228/228 227/227
f 163/163 164/164 229/229
f 163/163 229/229 228/228
f 164/164 165/165 230/230
f 164/164 230/230 229/229
f 165/165 166/166 231/231
f 165/165 231/231 230/230
f 166/166 167/167 232/232
f 166/166 232/232 231/231
f 167/167 168/168 233/233
f 167/167 233/233 232/232
f 168/168 169/169 234/234
f 168/168 234/234 233/233
f 169/169 170/170 235/235
f 169/169 235/235 234/234
f 170/170 171/171 236/236
f 170/170 236/236 235/235
f 171/171 172/172 237/237
f 171/171 237/237 236/236
f 172/172 173/173 238/238
f 172/172 238/238 237/237
f 173/173 174/174 239/239
f 173/173 239/239 238/238
f 174/174 175/175 240/240
f 174/174 240/240 239/239
f 175/175 176/176 241/241
f 175/175 241/241 240/240
f 176/176 177/177 242/242
f 176/176 242/242 241/241
f 177/177 178/178 243/243
f 177/177 243/243 242/242
f 178/178 179/179 244/244
f 178/178 244/244 243/243
f 179/179 180/180 245/245
f 179/179 245/245 244/244
f 180/180 181/181 246/246
f 180/180 246/246 245/245
f 181/181 182/182 247/247
f 181/181 247/247 246/246
f 182/182 183/183 248/248
f 182/182 248/248 247/247
f 183/183 184/184 249/249
f 183/183 249/249 248/248
f 184/184 185/185 250/250
f 184/184 250/250 249/249
f 185/185 186/186 251/251
f 185/185 251/251 250/250
f 186/186 187/187 252/252
f 186/186 252/252 251/251
f 187/187 188/188 253/253
f 187/187 253/253 252/252
f 188/188 189/189 254/254
f 188/188 254/254 253/253
f 189/189 190/190 255/255
f 189/189 255/255 254/254
f 190/190 191/191 256/256
f 190/190 256/256 255/255
f 191/191 192/192 257/257
f 191/191 257/257 256/256
f 192/192 193/193 258/258
f 192/192 258/258 257/257
f 193/193 194/194 259/259
f 193/193 259/259 258/258
f 194/194 195/195 260/260
f 194/194 260/260 259/259
f 196/196 197/197 262/262
f 196/196 262/262 261/261
f 197/197 198/198 263/263
f 197/197 263/263 262/262
f 198/198 199/199 264/264
f 198/198 264/264 263/263
f 199/199 200/200 265/265
f 199/199 265/265 264/264
f 200/200 201/201 266/266
f 200/200 266/266 265/265
f 201/201 202/202 267/267
f 201/201 267/267 266/266
f 202/202 203/203 268/268
f 202/202 268/268 267/267
f 203/203 204/204 269/269
f 203/203 269/269 268/268
f 204/204 205/205 270/270
f 204/204 270/270 269/269
f 205/205 206/206 271/271
f 205/205 271/271 270/270
f 206/206 207/207 272/272
f 206/206 272/272 271/271
f 207/207 208/208 273/273
f 207/207 273/273 272/272
f 208/208 209/209 274/274
f 208/208 274/274 273/273
f 209/209 210/210 275/275
f 209/209 275/275 274/274
f 210/210 211/211 276/276
f 210/210 276/276 275/275
f 211/211 212/212 277/277
f 211/211 277/277 276/276
f 212/212 213/213 278/278
f 212/212 278/278 277/277
f 213/213 214/214 279/279
f 213/213 279/279 278/278
f 214/214 215/215 280/280
f 214/214 280/280 279/279
f 215/215 216/216 281/281
f 215/215 281/281 280/280
f 216/216 217/217 282/282
f 216/216 282/282 281/281
f 217/217 218/218 283/283
f 217/217 283/283 282/282
f 218/218 219/219 284/284
f 218/218 284/284 283/283
f 219/219 220/220 285/285
f 219/219 285/285 284/284
f 220/220 221/221 286/286
f 220/220 286/286 285/285
f 221/221 222/222 287/287
f 221/221 287/287 286/286
f 222/222 223/223 288/288
f 222/222 288/288 287/287
f 223/223 224/224 289/289
f 223/223 289/289 288/288
f 224/224 225/225 290/290
f 224/224 290/290 289/289
f 225/225 226/226 291/291
f 225/225 291/291 290/290
f 226/226 227/227 292/292
f 226/226 292/292 291/291
f 227/227 228/228 293/293
f 227/227 293/293 292/292
f 228/228 229/229 294/294
f 228/228 294/294 293/293
f 229/229 230/230 295/295
f 229/229 295/295 294/294
f 230/230 231/231 296/296
f 230/230 296/296 295/295
f 231/231 232/232 297/297
f 231/231 297/297 296/296
f 232/232 233/233 298/298
f 232/232 298/298 297/297
f 233/233 234/234 299/299
f 233/233 299/299 298/298
f 234/234 235/235 300/300
f 234/234 300/300 299/299
f 235/235 236/236 301/301
f 235/235 301/301 300/300
f 236/236 237/237 302/302
f 236/236 302/302 301/301
f 237/237 238/238 303/303
f 237/237 303/303 302/302
f 238/238 239/239 304/304
f 238/238 304/304 303/303
f 239/239 240/240 305/305
f 239/239 305/305 304/304
f 240/240 241/241 306/306
f 240/240 306/306 305/305
f 241/241 242/242 307/307
f 241/241 307/307 306/306
f 242/242 243/243 308/308
f 242/242 308/308 307/307
f 243/243 244/244 309/309
f 243/243 309/309 308/308
f 244/244 245/245 310/310
f 244/244 310/310 309/309
f 245/245 246/246 311/311
f 245/245 311/311 310/310
f 246/246 247/247 312/312
f 246/246 312/312 311/311
f 247/247 248/248 313/313
f 247/247 313/313 312/312
f 248/248 249/249 314/314
f 248/248 314/314 313/313
f 249/249 250/250 315/315
f 249/249 315/315 314/314
f 250/250 251/251 316/316
f 250/250 316/316 315/315
f 251/251 252/252 317/317
f 251/251 317/317 316/316
f 252/252 253/253 318/318
f 252/252 318/318 317/317
f 253/253 254/254 319/319
f 253/253 319/319 318/318
f 254/254 255/255 320/320
f 254/254 320/320 319/319
f 255/255 256/256 321/321
f 255/255 321/321 320/320
f 256/256 257/257 322/322
f 256/256 322/322 321/321
f 257/257 258/258 323/323
f 257/257 323/323 322/322
f 258/258 259/259 324/324
f 258/258 324/324 323/323
f 259/259 260/260 325/325
f 259/259 325/325 324/324
f 326/326 2/2 1/1
f 326/326 3/3 2/2
f 326/326 4/4 3/3
f 326/326 5/5 4/4
f 326/326 6/6 5/5
f 326/326 7/7 6/6
f 326/326 8/8 7/7
f 326/326 9/9 8/8
f 326/326 10/10 9/9
f 326/326 11/11 10/10
f 326/326 12/12 11/11
f 326/326 13/13 12/12
f 326/326 14/14 13/13
f 326/326 15/15 14/14
f 326/326 16/16 15/15
f 326/326 17/17 16/16
f 326/326 18/18 17/17
f 326/326 19/19 18/18
f 326/326 20/20 19/19
f 326/326 21/21 20/20
f 326/326 22/22 21/21
f 326/326 23/23 22/22
f 326/326 24/24 23/23
f 326/326 25/25 24/24
f 326/326 26/26 25/25
f 326/326 27/27 26/26
f 326/326 28/28 27/27
f 326/326 29/29 28/28
f 326/326 30/30 29/29
f 326/326 31/31 30/30
f 326/326 32/32 31/31
f 326/326 33/33 32/32
f 326/326 34/34 33/33
f 326/326 35/35 34/34
f 326/326 36/36 35/35
f 326/326 37/37 36/36
f 326/326 38/38 37/37
f 326/326 39/39 38/38
f 326/326 40/40 39/39
f 326/326 41/41 40/40
f 326/326 42/42 41/41
f 326/326 43/43 42/42
f 326/326 44/44 43/43
f 326/326 45/45 44/44
f 326/326 46/46 45/45
f 326/326 47/47 46/46
f 326/326 48/48 47/47
f 326/326 49/49 48/48
f 326/326 50/50 49/49
f 326/326 51/51 50/50
f 326/326 52/52 51/51
f 326/326 53/53 52/52
f 326/326 54/54 53/53
f 326/326 55/55 54/54
f 326/326 56/56 55/55
f 326/326 57/57 56/56
f 326/326 58/58 57/57
f 326/326 59/59 58/58
f 326/326 60/60 59/59
f 326/326 61/61 60/60
f 326/326 62/62 61/61
f 326/326 63/63 62/62
f 326/326 64/64 63/63
f 326/326 65/65 64/64
f 327/327 261/261 262/262
f 327/327 262/262 263/263
f 327/327 263/263 264/264
f 327/327 264/264 265/265
f 327/327 265/265 266/266
f 327/327 266/266 267/267
f 327/327 267/267 268/268
f 327/327 268/268 269/269
f 327/327 269/269 270/270
f 327/327 270/270 271/271
f 327/327 271/271 272/272
f 327/327 272/272 273/273
f 327/327 273/273 274/274
f 327/327 274/274 275/275
f 327/327 275/275 276/276
f 327/327 276/276 277/277
f 327/327 277/277 278/278
f 327/327 278/278 279/279
f 327/327 279/279 280/280
f 327/327 280/280 281/281
f 327/327 281/281 282/282
f 327/327 282/282 283/283
f 327/327 283/283 284/284
f 327/327 284/284 285/285
f 327/327 285/285 286/286
f 327/327 286/286 287/287
f 327/327 287/287 288/288
f 327/327 288/288 289/289
f 327/327 289/289 290/290
f 327/327 290/290 291/291
f 327/327 291/291 292/292
f 327/327 292/292 293/293
f 327/327 293/293 294/294
f 327/327 294/294 295/295
f 327/327 295/295 296/296
f 327/327 296/296 297/297
f 327/327 297/297 298/298
f 327/327 298/298 299/299
f 327/327 299/299 300/300
f 327/327 300/300 301/301
f 327/327 301/301 302/302
f 327/327 302/302 303/303
f 327/327 303/303 304/304
f 327/327 304/304 305/305
f 327/327 305/305 306/306
f 327/327 306/306 307/307
f 327/327 307/307 308/308
f 327/327 308/308 309/309
f 327/327 309/309 310/310
f 327/327 310/310 311/311
f 327/327 311/311 312/312
f 327/327 312/312 313/313
f 327/327 313/313 314/314
f 327/327 314/314 315/315
f 327/327 315/315 316/316
f 327/327 316/316 317/317
f 327/327 317/317 318/318
f 327/327 318/318 319/319
f 327/327 319/319 320/320
f 327/327 320/320 321/321
f 327/327 321/321 322/322
f 327/327 322/322 323/323
f 327/327 323/323 324/324
f 327/327 324/324 325/325
f 328/328 329/329 394/394
f 328/328 394/394 393/393
f 329/329 330/330 395/395
f 329/329 395/395 394/394
f 330/330 331/331 396/396
f 330/330 396/396 395/395
f 331/331 332/332 397/397
f 331/331 397/397 396/396
f 332/332 333/333 398/398
f 332/332 398/398 397/397
f 333/333 334/334 399/399
f 333/333 399/399 398/398
f 334/334 335/335 400/400
f 334/334 400/400 399/399
f 335/335 336/336 401/401
f 335/335 401/401 400/400
f 336/336 337/337 402/402
f 336/336 402/402 401/401
f 337/337 338/338 403/403
f 337/337 403/403 402/402
f 338/338 339/339 404/404
f 338/338 404/404 403/403
f 339/339 340/340 405/405
f 339/339 405/405 404/404
f 340/340 341/341 406/406
f 340/340 406/406 405/405
f 341/341 342/342 407/407
f 341/341 407/407 406/406
f 342/342 343/343 408/408
f 342/342 408/408 407/407
f 343/343 344/344 409/409
f 343/343 409/409 408/408
f 344/344 345/345 410/410
f 344/344 410/410 409/409
f 345/345 346/346 411/411
f 345/345 411/411 410/410
f 346/346 347/347 412/412
f 346/346 412/412 411/411
f 347/347 348/348 413/413
f 347/347 413/413 412/412
f 348/348 349/349 414/414
f 348/348 414/414 413/413
f 349/349 350/350 415/415
f 349/349 415/415 414/414
f 350/350 351/351 416/416
f 350/350 416/416 415/415
f 351/351 352/352 417/417
f 351/351 417/417 416/416
f 352/352 353/353 418/418
f 352/352 418/418 417/417
f 353/353 354/354 419/419
f 353/353 419/419 418/418
f 354/354 355/355 420/420
f 354/354 420/420 419/419
f 355/355 356/356 421/421
f 355/355 421/421 420/420
f 356/356 357/357 422/422
f 356/356 422/422 421/421
f 357/357 358/358 423/423
f 357/357 423/423 422/422
f 358/358 359/359 424/424
f 358/358 424/424 423/423
f 359/359 360/360 425/425
f 359/359 425/425 424/424
f 360/360 361/361 426/426
f 360/360 426/426 425/425
f 361/361 362/362 427/427
f 361/361 427/427 426/426
f 362/362 363/363 428/428
f 362/362 428/428 427/427
f 363/363 364/364 429/429
f 363/363 429/429 428/428
f 364/364 365/365 430/430
f 364/364 430/430 429/429
f 365/365 366/366 431/431
f 365/365 431/431 430/430
f 366/366 367/367 432/432
f 366/366 432/432 431/431
f 367/367 368/368 433/433
f 367/367 433/433 432/432
f 368/368 369/369 434/434
f 368/368 434/434 433/433
f 369/369 370/370 435/435
f 369/369 435/435 434/434
f 370/370 371/371 436/436
f 370/370 436/436 435/435
f 371/371 372/372 437/437
f 371/371 437/437 436/436
f 372/372 373/373 438/438
f 372/372 438/438 437/437
f 373/373 374/374 439/439
f 373/373 439/439 438/438
f 374/374 375/375 440/440
f 374/374 440/440 439/439
f 375/375 376/376 441/441
f 375/375 441/441 440/440
f 376/376 377/377 442/442
f 376/376 442/442 441/441
f 377/377 378/378 443/443
f 377/377 443/443 442/442
f 378/378 379/379 444/444
f 378/378 444/444 443/443
f 379/379 380/380 445/445
f 379/379 445/445 444/444
f 380/380 381/381 446/446
f 380/380 446/446 445/445
f 381/381 382/382 447/447
f 381/381 447/447 446/446
f 382/382 383/383 448/448
f 382/382 448/448 447/447
f 383/383 384/384 449/449
f 383/383 449/449 448/448
f 384/384 385/385 450/450
f 384/384 450/450 449/449
f 385/385 386/386 451/451
f 385/385 451/451 450/450
f 386/386 387/387 452/452
f 386/386 452/452 451/451
f 387/387 388/388 453/453
f 387/387 453/453 452/452
f 388/388 389/389 454/454
f 388/388 454/454 453/453
f 389/389 390/390 455/455
f 389/389 455/455 454/454
f 390/390 391/391 456/456
f 390/390 456/456 455/455
f 391/391 392/392 457/457
f 391/391 457/457 456/456
f 458/458 459/459 524/524
f 458/458 524/524 523/523
f 459/459 460/460 525/525
f 459/459 525/525 524/524
f 460/460 461/461 526/526
f 460/460 526/526 525/525
f 461/461 462/462 527/527
f 461/461 527/527 526/526
f 462/462 463/463 528/528
f 462/462 528/528 527/527
f 463/463 464/464 529/529
f 463/463 529/529 528/528
f 464/464 465/465 530/530
f 464/464 530/530 529/529
f 465/465 466/466 531/531
f 465/465 531/531 530/530
f 466/466 467/467 532/532
f 466/466 532/532 531/531
f 467/467 468/468 533/533
f 467/467 533/533 532/532
f 468/468 469/469 534/534
f 468/468 534/534 533/533
f 469/469 470/470 535/535
f 469/469 535/535 534/534
f 470/470 471/471 536/536
f 470/470 536/536 535/535
f 471/471 472/472 537/537
f 471/471 537/537 536/536
f 472/472 473/473 538/538
f 472/472 538/538 537/537
f 473/473 474/474 539/539
f 473/473 539/539 538/538
f 474/474 475/475 540/540
f 474/474 540/540 539/539
f 475/475 476/476 541/541
f 475/475 541/541 540/540
f 476/476 477/477 542/542
f 476/476 542/542 541/541
f 477/477 478/478 543/543
f 477/477 543/543 542/542
f 478/478 479/479 544/544
f 478/478 544/544 543/543
f 479/479 480/480 545/545
f 479/479 545/545 544/544
f 480/480 481/481 546/546
f 480/480 546/546 545/545
f 481/481 482/482 547/547
f 481/481 547/547 546/546
f 482/482 483/483 548/548
f 482/482 548/548 547/547
f 483/483 484/484 549/549
f 483/483 549/549 548/548
f 484/484 485/485 550/550
f 484/484 550/550 549/549
f 485/485 486/486 551/551
f 485/485 551/551 550/550
f 486/486 487/487 552/552
f 486/486 552/552 551/551
f 487/487 488/488 553/553
f 487/487 553/553 552/552
f 488/488 489/489 554/554
f 488/488 554/554 553/553
f 489/489 490/490 555/555
f 489/489 555/555 554/554
f 490/490 491/491 556/556
f 490/490 556/556 555/555
f 491/491 492/492 557/557
f 491/491 557/557 556/556
f 492/492 493/493 558/558
f 492/492 558/558 557/557
f 493/493 494/494 559/559
f 493/493 559/559 558/558
f 494/494 495/495 560/560
f 494/494 560/560 559/559
f 495/495 496/496 561/561
f 495/495 561/561 560/560
f 496/496 497/497 562/562
f 496/496 562/562 561/561
f 497/497 498/498 563/563
f 497/497 563/563 562/562
f 498/498 499/499 564/564
f 498/498 564/564 563/563
f 499/499 500/500 565/565
f 499/499 565/565 564/564
f 500/500 501/501 566/566
f 500/500 566/566 565/565
f 501/501 502/502 567/567
f 501/501 567/567 566/566
f 502/502 503/503 568/568
f 502/502 568/568 567/567
f 503/503 504/504 569/569
f 503/503 569/569 568/568
f 504/504 505/505 570/570
f 504/504 570/570 569/569
f 505/505 506/506 571/571
f 505/505 571/571 570/570
f 506/506 507/507 572/572
f 506/506 572/572 571/571
f 507/507 508/508 573/573
f 507/507 573/573 572/572
f 508/508 509/509 574/574
f 508/508 574/574 573/573
f 509/509 510/510 575/575
f 509/509 575/575 574/574
f 510/510 511/511 576/576
f 510/510 576/576 575/575
f 511/511 512/512 577/577
f 511/511 577/577 576/576
f 512/512 513/513 578/578
f 512/512 578/578 577/577
f 513/513 514/514 579/579
f 513/513 579/579 578/578
f 514/514 515/515 580/580
f 514/514 580/580 579/579
f 515/515 516/516 581/581
f 515/515 581/581 580/580
f 516/516 517/517 582/582
f 516/516 582/582 581/581
f 517/517 518/518 583/583
f 517/517 583/583 582/582
f 518/518 519/519 584/584
f 518/518 584/584 583/583
f 519/519 520/520 585/585
f 519/519 585/585 584/584
f 520/520 521/521 586/586
f 520/520 586/586 585/585
f 521/521 522/522 587/587
f 521/521 587/587 586/586
f 523/523 524/524 589/589
f 523/523 589/589 588/588
f 524/524 525/525 590/590
f 524/524 590/590 589/589
f 525/525 526/526 591/591
f 525/525 591/591 590/590
f 526/526 527/527 592/592
f 526/526 592/592 591/591
f 527/527 528/528 593/593
f 527/527 593/593 592/592
f 528/528 529/529 594/594
f 528/528 594/594 593/593
f 529/529 530/530 595/595
f 529/529 595/595 594/594
f 530/530 531/531 596/596
f 530/530 596/596 595/595
f 531/531 532/532 597/597
f 531/531 597/597 596/596
f 532/532 533/533 598/598
f 532/532 598/598 597/597
f 533/533 534/534 599/599
f 533/533 599/599 598/598
f 534/534 535/535 600/600
f 534/534 600/600 599/599
f 535/535 536/536 601/601
f 535/535 601/601 600/600
f 536/536 537/537 602/602
f 536/536 602/602 601/601
f 537/537 538/538 603/603
f 537/537 603/603 602/602
f 538/538 539/539 604/604
f 538/538 604/604 603/603
f 539/539 540/540 605/605
f 539/539 605/605 604/604
f 540/540 541/541 606/606
f 540/540 606/606 605/605
f 541/541 542/542 607/607
f 541/541 607/607 606/606
f 542/542 543/543 608/608
f 542/542 608/608 607/607
f 543/543 544/544 609/609
f 543/543 609/609 608/608
f 544/544 545/545 610/610
f 544/544 610/610 609/609
f 545/545 546/546 611/611
f 545/545 611/611 610/610
f 546/546 547/547 612/612
f 546/546 612/612 611/611
f 547/547 548/548 613/613
f 547/547 613/613 612/612
f 548/548 549/549 614/614
f 548/548 614/614 613/613
f 549/549 550/550 615/615
f 549/549 615/615 614/614
f 550/550 551/551 616/616
f 550/550 616/616 615/615
f 551/551 552/552 617/617
f 551/551 617/617 616/616
f 552/552 553/553 618/618
f 552/552 618/618 617/617
f 553/553 554/554 619/619
f 553/553 619/619 618/618
f 554/554 555/555 620/620
f 554/554 620/620 619/619
f 555/555 556/556 621/621
f 555/555 621/621 620/620
f 556/556 557/557 622/622
f 556/556 622/622 621/621
f 557/557 558/558 623/623
f 557/557 623/623 622/622
f 558/558 559/559 624/624
f 558/558 624/624 623/623
f 559/559 560/560 625/625
f 559/559 625/625 624/624
f 560/560 561/561 626/626
f 560/560 626/626 625/625
f 561/561 562/562 627/627
f 561/561 627/627 626/626
f 562/562 563/563 628/628
f 562/562 628/628 627/627
f 563/563 564/564 629/629
f 563/563 629/629 628/628
f 564/564 565/565 630/630
f 564/564 630/630 629/629
f 565/565 566/566 631/631
f 565/565 631/631 630/630
f 566/566 567/567 632/632
f 566/566 632/632 631/631
f 567/567 568/568 633/633
f 567/567 633/633 632/632
f 568/568 569/569 634/634
f 568/568 634/634 633/633
f 569/569 570/570 635/635
f 569/569 635/635 634/634
f 570/570 571/571 636/636
f 570/570 636/636 635/635
f 571/571 572/572 637/637
f 571/571 637/637 636/636
f 572/572 573/573 638/638
f 572/572 638/638 637/637
f 573/573 574/574 639/639
f 573/573 639/639 638/638
f 574/574 575/575 640/640
f 574/574 640/640 639/639
f 575/575 576/576 641/641
f 575/575 641/641 640/640
f 576/576 577/577 642/642
f 576/576 642/642 641/641
f 577/577 578/578 643/643
f 577/577 643/643 642/642
f 578/578 579/579 644/644
f 578/578 644/644 643/643
f 579/579 580/580 645/645
f 579/579 645/645 644/644
f 580/580 581/581 646/646
f 580/580 646/646 645/645
f 581/581 582/582 647/647
f 581/581 647/647 646/646
f 582/582 583/583 648/648
f 582/582 648/648 647/647
f 583/583 584/584 649/649
f 583/583 649/649 648/648
f 584/584 585/585 650/650
f 584/584 650/650 649/649
f 585/585 586/586 651/651
f 585/585 651/651 650/650
f 586/586 587/587 652/652
f 586/586 652/652 651/651
f 653/653 459/459 458/458
f 653/653 460/460 459/459
f 653/653 461/461 460/460
f 653/653 462/462 461/461
f 653/653 463/463 462/462
f 653/653 464/464 463/463
f 653/653 465/465 464/464
f 653/653 466/466 465/465
f 653/653 467/467 466/466
f 653/653 468/468 467/467
f 653/653 469/469 468/468
f 653/653 470/470 469/469
f 653/653 471/471 470/470
f 653/653 472/472 471/471
f 653/653 473/473 472/472
f 653/653 474/474 473/473
f 653/653 475/475 474/474
f 653/653 476/476 475/475
f 653/653 477/477 476/476
f 653/653 478/478 477/477
f 653/653 479/479 478/478
f 653/653 480/480 479/479
f 653/653 481/481 480/480
f 653/653 482/482 481/481
f 653/653 483/483 482/482
f 653/653 484/484 483/483
f 653/653 485/485 484/484
f 653/653 486/486 485/485
f 653/653 487/487 486/486
f 653/653 488/488 487/487
f 653/653 489/489 488/488
f 653/653 490/490 489/489
f 653/653 491/491 490/490
f 653/653 492/492 491/491
f 653/653 493/493 492/492
f 653/653 494/494 493/493
f 653/653 495/495 494/494
f 653/653 496/496 495/495
f 653/653 497/497 496/496
f 653/653 498/498 497/497
f 653/653 499/499 498/498
f 653/653 500/500 499/499
f 653/653 501/501 500/500
f 653/653 502/502 501/501
f 653/653 503/503 502/502
f 653/653 504/504 503/503
f 653/653 505/505 504/504
f 653/653 506/506 505/505
f 653/653 507/507 506/506
f 653/653 508/508 507/507
f 653/653 509/509 508/508
f 653/653 510/510 509/509
f 653/653 511/511 510/510
f 653/653 512/512 511/511
f 653/653 513/513 512/512
f 653/653 514/514 513/513
f 653/653 515/515 514/514
f 653/653 516/516 515/515
f 653/653 517/517 516/516
f 653/653 518/518 517/517
f 653/653 519/519 518/518
f 653/653 520/520 519/519
f 653/653 521/521 520/520
f 653/653 522/522 521/521
f 654/654 588/588 589/589
f 654/654 589/589 590/590
f 654/654 590/590 591/591
f 654/654 591/591 592/592
f 654/654 592/592 593/593
f 654/654 593/593 594/594
f 654/654 594/594 595/595
f 654/654 595/595 596/596
f 654/654 596/596 597/597
f 654/654 597/597 598/598
f 654/654 598/598 599/599
f 654/654 599/599 600/600
f 654/654 600/600 601/601
f 654/654 601/601 602/602
f 654/654 602/602 603/603
f 654/654 603/603 604/604
f 654/654 604/604 605/605
f 654/654 605/605 606/606
f 654/654 606/606 607/607
f 654/654 607/607 608/608
f 654/654 608/608 609/609
f 654/654 609/609 610/610
f 654/654 610/610 611/611
f 654/654 611/611 612/612
f 654/654 612/612 613/613
f 654/654 613/613 614/614
f 654/654 614/614 615/615
f 654/654 615/615 616/616
f 654/654 616/616 617/617
f 654/654 617/617 618/618
f 654/654 618/618 619/619
f 654/654 619/619 620/620
f 654/654 620/620 621/621
f 654/654 621/621 622/622
f 654/654 622/622 623/623
f 654/654 623/623 624/624
f 654/654 624/624 625/625
f 654/654 625/625 626/626
f 654/654 626/626 627/627
f 654/654 627/627 628/628
f 654/654 628/628 629/629
f 654/654 629/629 630/630
f 654/654 630/630 631/631
f 654/654 631/631 632/632
f 654/654 632/632 633/633
f 654/654 633/633 634/634
f 654/654 634/634 635/635
f 654/654 635/635 636/636
f 654/654 636/636 637/637
f 654/654 637/637 638/638
f 654/654 638/638 639/639
f 654/654 639/639 640/640
f 654/654 640/640 641/641
f 654/654 641/641 642/642
f 654/654 642/642 643/643
f 654/654 643/643 644/644
f 654/654 644/644 645/645
f 654/654 645/645 646/646
f 654/654 646/646 647/647
f 654/654 647/647 648/648
f 654/654 648/648 649/649
f 654/654 649/649 650/650
f 654/654 650/650 651/651
f 654/654 651/651 652/652
